<svg width="512" height="512" viewBox="0 0 512 512" fill="none" xmlns="http://www.w3.org/2000/svg">
  <rect width="512" height="512" rx="112" fill="#07111F"/>
  <rect x="56" y="56" width="400" height="400" rx="92" fill="url(#paint0_linear)" stroke="rgba(148, 233, 255, 0.16)" stroke-width="4"/>
  <path d="M134 178C134 166.954 142.954 158 154 158H358C369.046 158 378 166.954 378 178V334C378 345.046 369.046 354 358 354H154C142.954 354 134 345.046 134 334V178Z" fill="rgba(255,255,255,0.04)" stroke="rgba(66,215,255,0.28)" stroke-width="5"/>
  <path d="M176 218H336" stroke="#67E8F9" stroke-width="18" stroke-linecap="round"/>
  <path d="M176 268H300" stroke="#34D399" stroke-width="18" stroke-linecap="round"/>
  <path d="M176 318H260" stroke="#F8FAFC" stroke-width="18" stroke-linecap="round"/>
  <circle cx="340" cy="272" r="28" fill="#22D3EE"/>
  <path d="M340 258V286M326 272H354" stroke="#07111F" stroke-width="10" stroke-linecap="round"/>
  <defs>
    <linearGradient id="paint0_linear" x1="56" y1="56" x2="456" y2="456" gradientUnits="userSpaceOnUse">
      <stop stop-color="#0E1A2D"/>
      <stop offset="1" stop-color="#07111F"/>
    </linearGradient>
  </defs>
</svg>
